<svg width="16" height="12" viewBox="0 0 16 12" fill="none" xmlns="http://www.w3.org/2000/svg">
<path d="M14.5 0.125122H1.50001C0.672854 0.125122 0 0.753229 0 1.52538V9.92685C0 10.699 0.672854 11.3271 1.50001 11.3271H14.5C15.3271 11.3271 16 10.699 16 9.92685V1.52538C16 0.753229 15.3271 0.125122 14.5 0.125122ZM14.5 1.05862C14.5679 1.05862 14.6325 1.07177 14.6916 1.09475L8 6.50874L1.30833 1.09475C1.36742 1.0718 1.43204 1.05862 1.49998 1.05862H14.5ZM14.5 10.3936H1.50001C1.22414 10.3936 0.999996 10.1844 0.999996 9.92682V2.081L7.67236 7.47914C7.76661 7.55525 7.8833 7.5931 8 7.5931C8.1167 7.5931 8.23339 7.55528 8.32764 7.47914L15 2.081V9.92685C15 10.1844 14.7759 10.3936 14.5 10.3936Z" fill="#757575"/>
</svg>
