<svg width="10" height="15" viewBox="0 0 10 15" fill="none" xmlns="http://www.w3.org/2000/svg">
<path d="M8.5 0.0609131H1.5C0.672848 0.0609131 0 0.689016 0 1.46116V13.5966C0 14.3688 0.672848 14.9969 1.5 14.9969H8.5C9.32715 14.9969 10 14.3688 10 13.5966V1.46116C10 0.689016 9.32715 0.0609131 8.5 0.0609131ZM1.5 0.994411H8.5C8.77588 0.994411 9 1.20363 9 1.46116V11.2629H1V1.46116C1 1.20363 1.22412 0.994411 1.5 0.994411ZM8.5 14.0634H1.5C1.22412 14.0634 1 13.8542 1 13.5966V12.1964H9V13.5966C9 13.8542 8.77588 14.0634 8.5 14.0634Z" fill="#757575"/>
<path d="M2.35355 12.7998C2.54882 12.9822 2.54882 13.2778 2.35355 13.4601C2.15828 13.6425 1.84172 13.6425 1.64645 13.4601C1.45118 13.2778 1.45118 12.9822 1.64645 12.7998C1.84172 12.6175 2.15828 12.6175 2.35355 12.7998Z" fill="#757575"/>
</svg>
